<svg width="102" height="102" viewBox="0 0 102 102" fill="none" xmlns="http://www.w3.org/2000/svg">
<g clip-path="url(#clip0)">
<path d="M81.9644 88.0589C81.9644 89.2196 82.8614 90.1606 83.9679 90.1606H99.9964C100.528 90.1606 101.037 89.9391 101.413 89.5449C101.789 89.1508 102 88.6162 102 88.0587V86.3389H81.9644V88.0589Z" fill="#00B2FF"/>
<path d="M99.9964 51.9464H83.9679C82.8614 51.9464 81.9644 52.8875 81.9644 54.0482V55.7679H102V54.0482C102 52.8875 101.103 51.9464 99.9964 51.9464Z" fill="#00B2FF"/>
<path d="M41.8929 65.3214H61.9285H78.3214V59.5894H41.8929V65.3214Z" fill="#00B2FF"/>
<path d="M83.7856 13.7322C83.7856 10.5665 81.3392 8 78.3213 8H23.6785C20.6608 8 18.2142 10.5663 18.2142 13.7322V25.1965H33.6708C38.2096 25.2017 41.8877 29.0602 41.8927 33.8214V55.7679H78.3213V54.0482C78.3314 50.8589 80.7469 48.2507 83.7856 48.1479V13.7322Z" fill="#F2C94C"/>
<path d="M60.1072 69.1429H41.8929V76.7856H60.1072V69.1429Z" fill="#00B2FF"/>
<path d="M102 59.5894H81.9644V82.5179H102V59.5894Z" fill="#F2C94C"/>
<path d="M0 85.3571C0.00199219 88.0091 2.05096 90.1585 4.57904 90.1606H33.671C36.199 90.1585 38.248 88.0091 38.25 85.3571V84.4286H0V85.3571Z" fill="#00B2FF"/>
<path d="M0 80.6071H38.25V78.6964V67.2322V38.5714H0V80.6071Z" fill="#00B2FF"/>
<path d="M33.671 29.0179H4.57904C2.05096 29.02 0.00199219 31.1694 0 33.8214V34.75H38.25V33.8214C38.248 31.1694 36.199 29.02 33.671 29.0179Z" fill="#00B2FF"/>
<path d="M69.2143 80.6071H41.8929V84.4286H71.0358V82.5179C71.0356 81.4627 70.2202 80.6071 69.2143 80.6071Z" fill="#00B2FF"/>
</g>
<defs>
<clipPath id="clip0">
<rect width="102" height="102" fill="white"/>
</clipPath>
</defs>
</svg>
