<svg width="94" height="94" viewBox="0 0 94 94" fill="none" xmlns="http://www.w3.org/2000/svg">
<g clip-path="url(#clip0)">
<path d="M15.6666 26.4375C15.6666 16.1797 24.013 7.83333 34.2708 7.83333H70.0417C68.7531 3.32525 64.6445 0 59.7291 0H14.6875C8.74588 0 3.91663 4.82925 3.91663 10.7708V71.4792C3.91663 77.4207 8.74588 82.25 14.6875 82.25H15.6666V26.4375Z" fill="#F2C94C"/>
<path d="M79.3125 15.6667H34.2708C28.3293 15.6667 23.5 20.4959 23.5 26.4375V83.2292C23.5 89.1708 28.3293 94 34.2708 94H79.3125C85.2541 94 90.0833 89.1708 90.0833 83.2292V26.4375C90.0833 20.4959 85.2541 15.6667 79.3125 15.6667ZM71.4792 82.25H42.1042C40.4827 82.25 39.1667 80.934 39.1667 79.3125C39.1667 77.691 40.4827 76.375 42.1042 76.375H71.4792C73.1007 76.375 74.4167 77.691 74.4167 79.3125C74.4167 80.934 73.1007 82.25 71.4792 82.25ZM71.4792 66.5833H42.1042C40.4827 66.5833 39.1667 65.2673 39.1667 63.6458C39.1667 62.0243 40.4827 60.7083 42.1042 60.7083H71.4792C73.1007 60.7083 74.4167 62.0243 74.4167 63.6458C74.4167 65.2673 73.1007 66.5833 71.4792 66.5833ZM71.4792 52.875H42.1042C40.4827 52.875 39.1667 51.559 39.1667 49.9375C39.1667 48.316 40.4827 47 42.1042 47H71.4792C73.1007 47 74.4167 48.316 74.4167 49.9375C74.4167 51.559 73.1007 52.875 71.4792 52.875ZM71.4792 37.2083H42.1042C40.4827 37.2083 39.1667 35.8923 39.1667 34.2708C39.1667 32.6493 40.4827 31.3333 42.1042 31.3333H71.4792C73.1007 31.3333 74.4167 32.6493 74.4167 34.2708C74.4167 35.8923 73.1007 37.2083 71.4792 37.2083Z" fill="#00B2FF"/>
</g>
<defs>
<clipPath id="clip0">
<rect width="94" height="94" fill="white"/>
</clipPath>
</defs>
</svg>
