<svg width="1440" height="1068" viewBox="0 0 1440 1068" fill="none" xmlns="http://www.w3.org/2000/svg">
<g filter="url(#filter0_d)">
<path d="M0 73.5001C0 73.5001 189.5 2.40833 413.5 5.0456C637.5 7.68288 924 28.5 1107.5 28.5C1291 28.5 1440 5.04558 1440 5.04558V971.5C1440 971.5 1336 1016.44 1037.5 1016.44C739 1016.44 637.5 982.066 413.5 988C189.5 993.934 11.2692 1046.12 0 1056V73.5001Z" fill="url(#paint0_radial)"/>
</g>
<mask id="mask0" mask-type="alpha" maskUnits="userSpaceOnUse" x="0" y="4" width="1440" height="1052">
<path d="M0 73.5001C0 73.5001 189.5 2.40833 413.5 5.0456C637.5 7.68288 889.5 41.5 1073 41.5C1256.5 41.5 1440 5.04558 1440 5.04558V971.5C1440 971.5 1336 1016.44 1037.5 1016.44C739 1016.44 647 980.566 423 986.5C199 992.434 11.2692 1046.12 0 1056V73.5001Z" fill="url(#paint1_linear)"/>
</mask>
<g mask="url(#mask0)">
<path d="M1953 916C1953 1246.27 1685.27 1514 1355 1514C1024.73 1514 757 1246.27 757 916C757 585.734 1024.73 318 1355 318C1685.27 318 1953 585.734 1953 916Z" fill="white" fill-opacity="0.16"/>
<path d="M1713 902.5C1713 1107.67 1546.67 1274 1341.5 1274C1136.33 1274 970 1107.67 970 902.5C970 697.326 1136.33 531 1341.5 531C1546.67 531 1713 697.326 1713 902.5Z" fill="white" fill-opacity="0.16"/>
<path d="M1536.5 904.5C1536.5 1004.74 1455.24 1086 1355 1086C1254.76 1086 1173.5 1004.74 1173.5 904.5C1173.5 804.26 1254.76 723 1355 723C1455.24 723 1536.5 804.26 1536.5 904.5Z" fill="white" fill-opacity="0.16"/>
<path d="M334 142C334 334.195 178.195 490 -14 490C-206.195 490 -362 334.195 -362 142C-362 -50.195 -206.195 -206 -14 -206C178.195 -206 334 -50.195 334 142Z" fill="white" fill-opacity="0.09"/>
<path d="M194.334 134.144C194.334 253.543 97.5426 350.335 -21.8562 350.335C-141.255 350.335 -238.047 253.543 -238.047 134.144C-238.047 14.7451 -141.255 -82.0468 -21.8562 -82.0468C97.5426 -82.0468 194.334 14.7451 194.334 134.144Z" fill="white" fill-opacity="0.09"/>
<path d="M91.6221 135.308C91.6221 193.641 44.3335 240.93 -14 240.93C-72.3335 240.93 -119.622 193.641 -119.622 135.308C-119.622 76.9743 -72.3335 29.6857 -14 29.6857C44.3335 29.6857 91.6221 76.9743 91.6221 135.308Z" fill="white" fill-opacity="0.09"/>
</g>
<defs>
<filter id="filter0_d" x="-8" y="0.973999" width="1456" height="1067.03" filterUnits="userSpaceOnUse" color-interpolation-filters="sRGB">
<feFlood flood-opacity="0" result="BackgroundImageFix"/>
<feColorMatrix in="SourceAlpha" type="matrix" values="0 0 0 0 0 0 0 0 0 0 0 0 0 0 0 0 0 0 127 0"/>
<feOffset dy="4"/>
<feGaussianBlur stdDeviation="4"/>
<feColorMatrix type="matrix" values="0 0 0 0 0 0 0 0 0 0 0 0 0 0 0 0 0 0 0.25 0"/>
<feBlend mode="normal" in2="BackgroundImageFix" result="effect1_dropShadow"/>
<feBlend mode="normal" in="SourceGraphic" in2="effect1_dropShadow" result="shape"/>
</filter>
<radialGradient id="paint0_radial" cx="0" cy="0" r="1" gradientUnits="userSpaceOnUse" gradientTransform="translate(1404 891) rotate(-150.662) scale(1589.92 2178.33)">
<stop stop-color="#56CCF2"/>
<stop offset="0.46875" stop-color="#53C8F0"/>
<stop offset="1" stop-color="#2D9CDB"/>
</radialGradient>
<linearGradient id="paint1_linear" x1="232" y1="-134.73" x2="1250.27" y2="902.023" gradientUnits="userSpaceOnUse">
<stop stop-color="#00B2FF" stop-opacity="0.68"/>
<stop offset="1" stop-color="#B660FA"/>
</linearGradient>
</defs>
</svg>
