<svg width="81" height="81" viewBox="0 0 81 81" fill="none" xmlns="http://www.w3.org/2000/svg">
<path d="M12.0234 37.9688C13.9379 37.9688 15.6708 37.2006 16.9512 35.9671L23.9758 39.4791C23.9406 39.7652 23.8887 40.0464 23.8887 40.3418C23.8887 44.2672 27.0824 47.4609 31.0078 47.4609C34.9332 47.4609 38.127 44.2672 38.127 40.3418C38.127 39.2461 37.8575 38.2203 37.4132 37.2921L46.9425 27.7628C47.8707 28.2071 48.8965 28.4766 49.9922 28.4766C53.9176 28.4766 57.1113 25.2828 57.1113 21.3574C57.1113 20.6183 56.9661 19.9194 56.756 19.2489L65.0357 13.0406C66.1654 13.7952 67.5194 14.2383 68.9766 14.2383C72.902 14.2383 76.0957 11.0446 76.0957 7.11914C76.0957 3.19373 72.902 0 68.9766 0C65.0511 0 61.8574 3.19373 61.8574 7.11914C61.8574 7.85825 62.0026 8.55718 62.2128 9.22769L53.9331 15.4359C52.8034 14.6814 51.4494 14.2383 49.9922 14.2383C46.0668 14.2383 42.873 17.432 42.873 21.3574C42.873 22.4531 43.1425 23.479 43.5868 24.4072L34.0575 33.9364C33.1293 33.4921 32.1035 33.2227 31.0078 33.2227C29.0933 33.2227 27.3605 33.9908 26.08 35.2243L19.0554 31.7123C19.0907 31.4262 19.1426 31.145 19.1426 30.8496C19.1426 26.9242 15.9489 23.7305 12.0234 23.7305C8.09802 23.7305 4.9043 26.9242 4.9043 30.8496C4.9043 34.775 8.09802 37.9688 12.0234 37.9688V37.9688Z" fill="#F2C94C"/>
<path d="M78.627 76.2539H76.0957V26.1035C76.0957 24.7922 75.034 23.7305 73.7227 23.7305H64.2305C62.9191 23.7305 61.8574 24.7922 61.8574 26.1035V76.2539H57.1113V40.3418C57.1113 39.0304 56.0496 37.9688 54.7383 37.9688H45.2461C43.9347 37.9688 42.873 39.0304 42.873 40.3418V76.2539H38.127V59.3262C38.127 58.0148 37.0653 56.9531 35.7539 56.9531H26.2617C24.9504 56.9531 23.8887 58.0148 23.8887 59.3262V76.2539H19.1426V49.834C19.1426 48.5226 18.0809 47.4609 16.7695 47.4609H7.27734C5.96599 47.4609 4.9043 48.5226 4.9043 49.834V76.2539H2.37305C1.06169 76.2539 0 77.3156 0 78.627C0 79.9383 1.06169 81 2.37305 81H78.627C79.9383 81 81 79.9383 81 78.627C81 77.3156 79.9383 76.2539 78.627 76.2539Z" fill="#00B2FF"/>
</svg>
