<svg width="101" height="101" viewBox="0 0 101 101" fill="none" xmlns="http://www.w3.org/2000/svg">
<g clip-path="url(#clip0)">
<path d="M97.0547 22.6855V14.9835C97.0547 6.83821 90.5506 0.0796885 82.4057 0.000585017C74.1813 -0.0791103 67.4648 6.58827 67.4648 14.7949V22.6855H66.4785C64.8444 22.6855 63.5195 24.0104 63.5195 25.6445V50.3027C63.5195 51.9369 64.8444 53.2617 66.4785 53.2617H98.041C99.6752 53.2617 101 51.9369 101 50.3027V25.6445C101 24.0104 99.6752 22.6855 98.041 22.6855H97.0547ZM85.2188 36.9873V41.9189C85.2188 43.5531 83.8939 44.8779 82.2598 44.8779C80.6256 44.8779 79.3008 43.5531 79.3008 41.9189V36.9873C77.6666 36.9873 76.3418 35.6625 76.3418 34.0283C76.3418 32.3942 77.6666 31.0693 79.3008 31.0693H85.2188C86.8529 31.0693 88.1777 32.3942 88.1777 34.0283C88.1777 35.6625 86.8529 36.9873 85.2188 36.9873ZM91.1367 22.6855H73.3828V14.7949C73.3828 9.90016 77.365 5.91796 82.2598 5.91796C87.1545 5.91796 91.1367 9.90016 91.1367 14.7949V22.6855Z" fill="#F2C94C"/>
<path d="M65.0977 61.5469H15.7812C14.1471 61.5469 12.8223 60.222 12.8223 58.5879C12.8223 56.9537 14.1471 55.6289 15.7812 55.6289H59.3819C58.2648 54.1443 57.6016 52.2997 57.6016 50.3027V47.7383H15.7812C14.1471 47.7383 12.8223 46.4134 12.8223 44.7793C12.8223 43.1451 14.1471 41.8203 15.7812 41.8203H57.6016V28.0117H2.95898C1.32484 28.0117 0 29.3366 0 30.9707V98.041C0 99.2378 0.721006 100.317 1.82668 100.775C2.1928 100.926 2.57728 101 2.95839 101C3.72852 101 4.48543 100.699 5.05138 100.133L16.0207 89.1641H77.9199C79.5541 89.1641 80.8789 87.8392 80.8789 86.2051V59.1797H67.9973C67.7231 60.5302 66.5292 61.5469 65.0977 61.5469ZM65.0977 75.3555H15.7812C14.1471 75.3555 12.8223 74.0306 12.8223 72.3965C12.8223 70.7623 14.1471 69.4375 15.7812 69.4375H65.0977C66.7318 69.4375 68.0566 70.7623 68.0566 72.3965C68.0566 74.0306 66.7318 75.3555 65.0977 75.3555Z" fill="#00B2FF"/>
</g>
<defs>
<clipPath id="clip0">
<rect width="101" height="101" fill="white"/>
</clipPath>
</defs>
</svg>
