<svg width="86" height="86" viewBox="0 0 86 86" fill="none" xmlns="http://www.w3.org/2000/svg">
<path d="M73.5856 45.9093H66.9347C67.6126 47.7654 67.983 49.7684 67.983 51.8561V76.9926C67.983 77.8631 67.8314 78.6985 67.5558 79.4756H78.5512C82.6586 79.4756 86 76.134 86 72.0268V58.3237C86.0002 51.4785 80.431 45.9093 73.5856 45.9093Z" fill="#00B2FF"/>
<path d="M18.0172 51.8563C18.0172 49.7684 18.3876 47.7655 19.0655 45.9095H12.4146C5.56918 45.9095 0 51.4787 0 58.3241V72.0272C0 76.1343 3.34141 79.4759 7.44876 79.4759H18.4443C18.1687 78.6986 18.0172 77.8632 18.0172 76.9928V51.8563V51.8563Z" fill="#F2C94C"/>
<path d="M50.6025 39.4417H35.3977C28.5522 39.4417 22.9831 45.0108 22.9831 51.8562V76.9928C22.9831 78.3639 24.0947 79.4757 25.466 79.4757H60.5342C61.9055 79.4757 63.0171 78.3641 63.0171 76.9928V51.8562C63.0171 45.0108 57.4479 39.4417 50.6025 39.4417Z" fill="#00B2FF"/>
<path d="M43.0001 6.52393C34.7676 6.52393 28.07 13.2215 28.07 21.4542C28.07 27.0383 31.152 31.9153 35.7037 34.4758C37.8626 35.6902 40.3515 36.3843 43.0001 36.3843C45.6486 36.3843 48.1376 35.6902 50.2965 34.4758C54.8483 31.9153 57.9302 27.0382 57.9302 21.4542C57.9302 13.2217 51.2326 6.52393 43.0001 6.52393Z" fill="#00B2FF"/>
<path d="M16.7831 20.44C10.6262 20.44 5.6174 25.4488 5.6174 31.6057C5.6174 37.7627 10.6262 42.7715 16.7831 42.7715C18.3449 42.7715 19.8321 42.448 21.1831 41.8665C23.5189 40.8608 25.4448 39.0807 26.6365 36.8509C27.473 35.2859 27.9489 33.5006 27.9489 31.6057C27.9489 25.449 22.9401 20.44 16.7831 20.44Z" fill="#F2C94C"/>
<path d="M69.2171 20.44C63.0601 20.44 58.0513 25.4488 58.0513 31.6057C58.0513 33.5008 58.5272 35.2861 59.3636 36.8509C60.5554 39.0809 62.4813 40.861 64.8171 41.8665C66.1681 42.448 67.6553 42.7715 69.2171 42.7715C75.374 42.7715 80.3828 37.7627 80.3828 31.6057C80.3828 25.4488 75.374 20.44 69.2171 20.44Z" fill="#00B2FF"/>
</svg>
